<svg width="23" height="26" viewBox="0 0 23 26" fill="none" xmlns="http://www.w3.org/2000/svg">
<path d="M19.1705 5.98375C20.3101 6.6716 21.3499 7.42505 22.2024 8.46256C22.2024 8.66836 22.2024 8.87417 22.2024 9.08622C21.6947 9.34669 21.6947 9.34669 21.1768 9.61243C20.1147 10.2383 19.5461 10.6942 19.1064 11.8927C18.8992 13.4495 18.9273 14.6364 19.6095 16.0634C20.4233 16.9694 21.163 17.5107 22.2024 18.1293C21.4275 20.7268 19.964 23.6118 17.5584 24.9895C15.8458 25.2455 14.4953 25.0545 12.9144 24.3659C11.8295 24.2878 11.0208 24.2499 10.0119 24.6777C8.80398 25.1412 7.68893 25.1676 6.41284 24.9895C3.41147 23.5385 1.78314 20.4693 0.530468 17.5056C-0.239213 15.2457 -0.173913 11.8567 0.743317 9.65141C1.70998 7.8452 3.22763 6.3097 5.17444 5.65609C7.21184 5.48116 8.84702 5.6825 10.7521 6.40034C11.8633 6.74626 12.7462 6.48542 13.79 6.03613C15.6771 5.22793 17.2726 5.07366 19.1705 5.98375Z" fill="white"/>
<path d="M16.6296 0.0431454C16.5515 1.84851 16.4657 3.12473 15.0816 4.40877C13.7819 5.37471 12.6948 5.81704 11.0568 5.65609C10.9583 4.41589 10.982 3.63026 11.5212 2.49881C12.9244 0.873476 14.4083 -0.236512 16.6296 0.0431454Z" fill="white"/>
</svg>
