<svg width="234" height="94" viewBox="0 0 234 94" fill="none" xmlns="http://www.w3.org/2000/svg">
<g clip-path="url(#clip0_5051_32140)">
<path d="M143.745 83.3404H136.457C136.457 83.3404 136.431 83.3404 136.42 83.3404C136.345 83.3515 136.294 83.4181 136.305 83.4885V84.4329C136.305 84.4329 136.305 84.4588 136.305 84.4699C136.316 84.5403 136.382 84.5922 136.457 84.5811H139.242C139.242 84.5811 139.253 84.5811 139.256 84.5811C139.286 84.5848 139.308 84.6107 139.305 84.6403V93.5399C139.305 93.5399 139.305 93.5658 139.305 93.5769C139.316 93.6473 139.382 93.6991 139.456 93.688H140.612C140.612 93.688 140.638 93.688 140.649 93.688C140.723 93.6769 140.775 93.6103 140.764 93.5399V84.6403C140.764 84.6403 140.764 84.6292 140.764 84.6255C140.767 84.5959 140.797 84.5774 140.823 84.5811H143.745C143.745 84.5811 143.771 84.5811 143.782 84.5811C143.856 84.5699 143.908 84.5033 143.897 84.4329V83.4885C143.897 83.4885 143.897 83.4626 143.897 83.4515C143.886 83.3811 143.819 83.3293 143.745 83.3404Z" fill="white"/>
<path d="M157.03 83.3441H150.26C150.26 83.3441 150.234 83.3441 150.223 83.3441C150.149 83.3552 150.097 83.4218 150.108 83.4922V93.5473C150.108 93.5473 150.108 93.5732 150.108 93.5843C150.119 93.6547 150.186 93.7065 150.26 93.6954H157.03C157.03 93.6954 157.056 93.6954 157.067 93.6954C157.141 93.6843 157.193 93.6177 157.182 93.5473V92.614C157.182 92.614 157.182 92.5881 157.182 92.577C157.171 92.5066 157.104 92.4548 157.03 92.4659H151.63C151.63 92.4659 151.619 92.4659 151.615 92.4659C151.586 92.4622 151.567 92.4362 151.571 92.4066V89.1512C151.571 89.1512 151.571 89.1438 151.571 89.1364C151.575 89.1068 151.6 89.0882 151.63 89.0919H155.341C155.341 89.0919 155.367 89.0919 155.378 89.0919C155.452 89.0808 155.504 89.0142 155.493 88.9438V88.0105C155.493 88.0105 155.493 87.9846 155.493 87.9735C155.482 87.9031 155.415 87.8513 155.341 87.8624H151.63C151.63 87.8624 151.623 87.8624 151.615 87.8624C151.586 87.8624 151.563 87.8327 151.567 87.8031V84.6255C151.567 84.6255 151.567 84.6144 151.567 84.6107C151.571 84.5811 151.597 84.5625 151.626 84.5662H157.026C157.026 84.5662 157.052 84.5662 157.063 84.5662C157.137 84.5551 157.189 84.4885 157.178 84.4181V83.4885C157.178 83.4885 157.178 83.4626 157.178 83.4515C157.167 83.3811 157.1 83.3293 157.026 83.3404L157.03 83.3441Z" fill="white"/>
<path d="M116.009 83.3441H109.239C109.239 83.3441 109.213 83.3441 109.202 83.3441C109.128 83.3552 109.076 83.4218 109.087 83.4922V93.5473C109.087 93.5473 109.087 93.5732 109.087 93.5843C109.099 93.6547 109.165 93.7065 109.239 93.6954H116.009C116.009 93.6954 116.035 93.6954 116.046 93.6954C116.12 93.6843 116.172 93.6177 116.161 93.5473V92.614C116.161 92.614 116.161 92.5881 116.161 92.577C116.15 92.5066 116.083 92.4548 116.009 92.4659H110.61C110.61 92.4659 110.598 92.4659 110.595 92.4659C110.565 92.4622 110.547 92.4362 110.55 92.4066V89.1512C110.55 89.1512 110.55 89.1401 110.55 89.1364C110.554 89.1068 110.58 89.0882 110.61 89.0919H114.321C114.321 89.0919 114.346 89.0919 114.358 89.0919C114.432 89.0808 114.483 89.0142 114.472 88.9438V88.0105C114.472 88.0105 114.472 87.9846 114.472 87.9735C114.461 87.9031 114.395 87.8513 114.321 87.8624H110.61C110.61 87.8624 110.598 87.8624 110.595 87.8624C110.565 87.8587 110.547 87.8327 110.55 87.8031V84.6255C110.55 84.6255 110.55 84.6144 110.55 84.6107C110.554 84.5811 110.58 84.5625 110.61 84.5662H116.009C116.009 84.5662 116.035 84.5662 116.046 84.5662C116.12 84.5551 116.172 84.4885 116.161 84.4181V83.4885C116.161 83.4885 116.161 83.4626 116.161 83.4515C116.15 83.3811 116.083 83.3293 116.009 83.3404V83.3441Z" fill="white"/>
<path d="M205.479 83.3404H204.323C204.323 83.3404 204.297 83.3404 204.286 83.3404C204.212 83.3515 204.16 83.4181 204.171 83.4885V93.5436C204.171 93.5436 204.171 93.5695 204.171 93.5806C204.183 93.651 204.249 93.7028 204.323 93.6917H205.479C205.479 93.6917 205.505 93.6917 205.516 93.6917C205.59 93.6806 205.642 93.614 205.631 93.5436V83.4885C205.631 83.4885 205.631 83.4626 205.631 83.4515C205.62 83.3811 205.553 83.3293 205.479 83.3404Z" fill="white"/>
<path d="M129.946 83.3404H128.79C128.79 83.3404 128.764 83.3404 128.753 83.3404C128.679 83.3515 128.627 83.4181 128.638 83.4885L128.653 90.9845C128.653 91.0141 128.642 91.0326 128.624 91.0363C128.605 91.04 128.587 91.0289 128.579 90.9993L123.831 83.4441C123.794 83.3811 123.724 83.3441 123.65 83.3404H122.524C122.524 83.3404 122.498 83.3404 122.487 83.3404C122.413 83.3515 122.361 83.4181 122.372 83.4885V93.5436C122.372 93.5436 122.372 93.5695 122.372 93.5806C122.383 93.651 122.45 93.7028 122.524 93.6917H123.679C123.679 93.6917 123.705 93.6917 123.716 93.6917C123.791 93.6806 123.842 93.614 123.831 93.5436L123.816 86.0476C123.816 86.018 123.828 85.9995 123.846 85.9958C123.865 85.9921 123.883 86.0032 123.891 86.0328L128.653 93.588C128.69 93.651 128.761 93.688 128.835 93.6917H129.946C129.946 93.6917 129.972 93.6917 129.983 93.6917C130.057 93.6806 130.109 93.614 130.098 93.5436V83.4885C130.098 83.4885 130.098 83.4626 130.098 83.4515C130.087 83.3811 130.02 83.3293 129.946 83.3404Z" fill="white"/>
<path d="M195.743 89.077C195.721 89.0474 195.732 89.0215 195.772 89.003C196.387 88.8622 196.935 88.5215 197.317 88.0326C197.698 87.5253 197.891 86.9068 197.872 86.2809C197.883 85.7439 197.754 85.2143 197.491 84.7439C197.243 84.3069 196.872 83.9477 196.417 83.7106C195.924 83.4551 195.372 83.3292 194.813 83.3403H190.721C190.721 83.3403 190.695 83.3403 190.684 83.3403C190.61 83.3514 190.558 83.418 190.569 83.4884V93.5435C190.569 93.5435 190.569 93.5694 190.569 93.5805C190.58 93.6509 190.647 93.7027 190.721 93.6916H191.876C191.876 93.6916 191.902 93.6916 191.913 93.6916C191.987 93.6805 192.039 93.6139 192.028 93.5435V89.1807C192.028 89.1807 192.028 89.1696 192.028 89.1659C192.032 89.1363 192.058 89.1178 192.087 89.1215H194.276C194.306 89.1215 194.332 89.14 194.335 89.1659L196.465 93.5879C196.491 93.6546 196.557 93.6953 196.632 93.6916H197.831C197.913 93.6916 197.954 93.6583 197.954 93.5879C197.954 93.562 197.95 93.5361 197.939 93.5139L195.732 89.077H195.743ZM192.095 87.9993C192.095 87.9993 192.087 87.9993 192.08 87.9993C192.05 87.9956 192.028 87.9697 192.032 87.9401V84.6291C192.032 84.6291 192.032 84.618 192.032 84.6143C192.035 84.5847 192.061 84.5661 192.091 84.5698H194.632C195.109 84.5476 195.58 84.718 195.924 85.0439C196.258 85.3809 196.432 85.8328 196.413 86.2994C196.435 86.7586 196.258 87.2068 195.924 87.5327C195.576 87.8512 195.109 88.0215 194.632 87.9993H192.091H192.095Z" fill="white"/>
<path d="M168.559 89.077C168.54 89.0474 168.548 89.0215 168.588 89.003C169.203 88.8622 169.751 88.5215 170.133 88.0326C170.514 87.5253 170.707 86.9068 170.688 86.2809C170.699 85.7439 170.57 85.2143 170.307 84.7439C170.059 84.3069 169.688 83.9477 169.233 83.7106C168.74 83.4551 168.188 83.3292 167.629 83.3403H163.537C163.537 83.3403 163.511 83.3403 163.5 83.3403C163.426 83.3514 163.374 83.418 163.385 83.4884V93.5435C163.385 93.5435 163.385 93.5694 163.385 93.5805C163.396 93.6509 163.463 93.7027 163.537 93.6916H164.692C164.692 93.6916 164.718 93.6916 164.729 93.6916C164.803 93.6805 164.855 93.6139 164.844 93.5435V89.1807C164.844 89.1807 164.844 89.1696 164.844 89.1659C164.848 89.1363 164.874 89.1178 164.903 89.1215H167.092C167.122 89.1215 167.148 89.14 167.151 89.1659L169.281 93.5879C169.307 93.6546 169.373 93.6953 169.447 93.6916H170.647C170.729 93.6916 170.77 93.6583 170.77 93.5879C170.77 93.562 170.766 93.5361 170.755 93.5139L168.548 89.077H168.559ZM164.907 87.9993C164.907 87.9993 164.9 87.9993 164.892 87.9993C164.863 87.9956 164.84 87.9697 164.844 87.9401V84.6291C164.844 84.6291 164.844 84.618 164.844 84.6143C164.848 84.5847 164.874 84.5661 164.903 84.5698H167.444C167.922 84.5476 168.392 84.718 168.736 85.0439C169.07 85.3809 169.244 85.8328 169.222 86.2994C169.244 86.7586 169.066 87.2068 168.736 87.5327C168.388 87.8512 167.922 88.0215 167.444 87.9993H164.903H164.907Z" fill="white"/>
<path d="M217.793 88.6551C217.227 88.3699 216.642 88.1144 216.045 87.8922C215.345 87.6366 214.827 87.4292 214.486 87.2663C214.194 87.1366 213.931 86.9478 213.716 86.7107C213.538 86.4811 213.445 86.1996 213.457 85.9108C213.431 85.4886 213.627 85.0812 213.971 84.8256C214.405 84.5516 214.916 84.4183 215.431 84.4516C216.053 84.4183 216.671 84.596 217.171 84.9627C217.575 85.2701 217.808 85.7441 217.801 86.2404V86.4626C217.801 86.4626 217.801 86.4885 217.801 86.4996C217.812 86.57 217.879 86.6219 217.953 86.6107H219.093C219.093 86.6107 219.119 86.6107 219.13 86.6107C219.204 86.5996 219.256 86.533 219.245 86.4626V86.1663C219.256 85.6182 219.093 85.0849 218.782 84.6294C218.453 84.1701 217.997 83.8109 217.467 83.5961C216.842 83.3405 216.168 83.2146 215.49 83.2257C214.586 83.1776 213.69 83.4331 212.957 83.9516C212.334 84.4331 211.986 85.1738 212.02 85.9478C212.001 86.4478 212.149 86.9366 212.446 87.344C212.731 87.7144 213.097 88.0218 213.52 88.2403C214.09 88.5255 214.675 88.7773 215.279 88.9921C215.801 89.1847 216.312 89.4032 216.808 89.6513C217.112 89.7995 217.382 90.0032 217.608 90.2513C217.793 90.4735 217.89 90.7513 217.882 91.0365C217.897 91.4698 217.697 91.8883 217.349 92.1586C216.89 92.4771 216.33 92.6253 215.768 92.5882C215.116 92.6253 214.471 92.4512 213.927 92.0994C213.505 91.8179 213.253 91.355 213.257 90.8587V90.5031C213.257 90.5031 213.257 90.4772 213.257 90.4661C213.245 90.3957 213.179 90.3439 213.105 90.355H211.994C211.994 90.355 211.968 90.355 211.957 90.355C211.883 90.3661 211.831 90.4328 211.842 90.5031V90.9328C211.831 91.4735 211.99 92.0068 212.305 92.4549C212.638 92.9067 213.097 93.2549 213.627 93.4586C214.271 93.7067 214.964 93.8289 215.656 93.8141H215.653C216.619 93.8697 217.575 93.5993 218.364 93.0512C219.012 92.5549 219.379 91.7883 219.345 90.9883C219.364 90.4846 219.208 89.9884 218.904 89.5773C218.608 89.1958 218.23 88.8847 217.793 88.6625V88.6551Z" fill="white"/>
<path d="M182.884 83.7034C182.38 83.4442 181.817 83.3146 181.251 83.3294H177.14C177.14 83.3294 177.114 83.3257 177.103 83.3257C177.029 83.3368 176.977 83.4035 176.988 83.4738V93.54C176.988 93.54 176.988 93.5659 176.988 93.577C176.999 93.6474 177.066 93.6993 177.14 93.6882H178.295C178.295 93.6882 178.321 93.6882 178.332 93.6882C178.406 93.677 178.458 93.6104 178.447 93.54V89.3402C178.447 89.3402 178.447 89.3291 178.447 89.3254C178.451 89.2958 178.48 89.2773 178.51 89.281H181.188C181.765 89.2921 182.339 89.1661 182.854 88.9106C183.321 88.6773 183.71 88.318 183.973 87.8773C184.243 87.4033 184.38 86.8663 184.369 86.3255C184.38 85.7811 184.247 85.2404 183.984 84.7589C183.732 84.3108 183.35 83.9442 182.888 83.7034H182.884ZM182.399 87.644C182.036 87.9773 181.551 88.1551 181.051 88.1329H178.51C178.51 88.1329 178.499 88.1329 178.495 88.1329C178.466 88.1292 178.443 88.1032 178.451 88.0736V84.6145C178.451 84.6145 178.451 84.6034 178.451 84.5997C178.454 84.5701 178.484 84.5515 178.514 84.5553H181.054C181.554 84.533 182.039 84.7108 182.402 85.0515C182.751 85.3997 182.936 85.8737 182.913 86.3589C182.936 86.8366 182.751 87.3033 182.402 87.644H182.399Z" fill="white"/>
<path d="M232.474 83.3404H225.704C225.704 83.3404 225.678 83.3404 225.667 83.3404C225.593 83.3515 225.541 83.4182 225.552 83.4885V93.5436C225.552 93.5436 225.552 93.5696 225.552 93.5807C225.563 93.651 225.63 93.7029 225.704 93.6918H232.474C232.474 93.6918 232.5 93.6918 232.511 93.6918C232.585 93.6807 232.637 93.614 232.626 93.5436V92.6103C232.626 92.6103 232.626 92.5844 232.626 92.5733C232.615 92.5029 232.548 92.4511 232.474 92.4622H227.074C227.074 92.4622 227.063 92.4622 227.06 92.4622C227.03 92.4585 227.008 92.4326 227.011 92.4029V89.1475C227.011 89.1475 227.011 89.1364 227.011 89.1327C227.015 89.1031 227.041 89.0846 227.071 89.0883H230.782C230.782 89.0883 230.808 89.0883 230.819 89.0883C230.893 89.0772 230.945 89.0105 230.933 88.9401V88.0069C230.933 88.0069 230.933 87.9809 230.933 87.9698C230.922 87.8995 230.856 87.8476 230.782 87.8587H227.071C227.071 87.8587 227.06 87.8587 227.056 87.8587C227.026 87.855 227.004 87.8291 227.008 87.7995V84.6218C227.008 84.6218 227.008 84.6107 227.008 84.607C227.011 84.5774 227.037 84.5589 227.067 84.5626H232.467C232.467 84.5626 232.493 84.5626 232.504 84.5626C232.578 84.5515 232.63 84.4848 232.619 84.4144V83.4848C232.619 83.4848 232.619 83.4589 232.619 83.4478C232.607 83.3774 232.541 83.3256 232.467 83.3367L232.474 83.3404Z" fill="white"/>
<path d="M126.357 36.6202C126.027 36.6684 125.723 36.4499 125.672 36.1314C125.668 36.1054 125.664 36.0795 125.664 36.0499L124.812 31.0835C124.812 30.9094 124.705 30.8242 124.494 30.8242H117.735C117.52 30.8242 117.416 30.9094 117.416 31.0835L116.565 36.0499C116.561 36.3721 116.287 36.6313 115.957 36.6239C115.928 36.6239 115.902 36.6239 115.876 36.6165H109.65C109.187 36.6165 109.013 36.3906 109.117 35.9425L116.939 0.988598C116.965 0.647873 117.272 0.39233 117.624 0.418254C117.624 0.418254 117.628 0.418254 117.631 0.418254H124.816C125.168 0.388626 125.475 0.640466 125.509 0.981191C125.509 0.981191 125.509 0.984894 125.509 0.988598L133.279 35.9499L133.331 36.1573C133.331 36.4684 133.134 36.6239 132.745 36.6239H126.36L126.357 36.6202ZM118.483 24.9319C118.483 25.106 118.553 25.1912 118.694 25.1912H123.483C123.661 25.1912 123.731 25.106 123.694 24.9319L121.19 10.8141C121.153 10.7104 121.101 10.6585 121.031 10.6585C120.961 10.6585 120.905 10.7104 120.872 10.8141L118.479 24.9319H118.483ZM146.741 37.0313C143.549 37.0313 140.986 36.1425 139.052 34.3685C137.119 32.5945 136.153 30.2242 136.153 27.2577V9.77707C136.153 6.81054 137.119 4.44029 139.052 2.6663C140.982 0.888602 143.549 -0.000244141 146.741 -0.000244141C149.933 -0.000244141 152.507 0.89601 154.459 2.68852C156.411 4.48102 157.385 6.85869 157.385 9.82522V11.7918C157.385 11.9584 157.322 12.1177 157.2 12.2325C157.081 12.351 156.918 12.4177 156.748 12.414H150.522C150.352 12.414 150.189 12.351 150.07 12.2325C149.948 12.1177 149.882 11.9584 149.885 11.7918V9.72152C149.93 8.81045 149.626 7.9179 149.033 7.21052C148.459 6.56981 147.619 6.21798 146.745 6.25501C145.889 6.22539 145.067 6.57722 144.511 7.21052C143.919 7.9179 143.615 8.81045 143.66 9.71781V27.3022C143.615 28.2132 143.919 29.1058 144.511 29.8095C145.067 30.4428 145.889 30.7946 146.745 30.765C147.619 30.802 148.459 30.4502 149.033 29.8095C149.626 29.1021 149.93 28.2095 149.885 27.3022V23.1653C149.904 23.0394 149.819 22.9246 149.689 22.9061C149.667 22.9061 149.641 22.9061 149.619 22.9061H147.278C147.108 22.9061 146.945 22.8431 146.826 22.7246C146.704 22.6098 146.637 22.4505 146.641 22.2839V17.6804C146.641 17.5137 146.704 17.3545 146.826 17.2397C146.945 17.1212 147.108 17.0545 147.278 17.0582H156.752C156.922 17.0582 157.085 17.1212 157.203 17.2397C157.326 17.3545 157.392 17.5137 157.389 17.6804V27.2466C157.389 30.2131 156.415 32.5834 154.463 34.3574C152.511 36.1314 149.937 37.0239 146.745 37.0239L146.741 37.0313ZM177.554 36.6165C177.21 36.6462 176.891 36.4277 176.81 36.098L172.714 21.8246C172.643 21.6876 172.555 21.6172 172.447 21.6172H170.64C170.51 21.5987 170.392 21.6839 170.373 21.8098C170.373 21.8321 170.373 21.858 170.373 21.8802V35.998C170.373 36.1647 170.31 36.324 170.188 36.4388C170.07 36.5573 169.907 36.6239 169.736 36.6202H163.511C163.34 36.6202 163.177 36.5573 163.059 36.4388C162.937 36.324 162.87 36.1647 162.874 35.998V1.04045C162.874 0.873788 162.937 0.714537 163.059 0.599727C163.177 0.481214 163.34 0.414551 163.511 0.418254H174.262C176.099 0.388626 177.906 0.862678 179.476 1.78856C181.013 2.71444 182.243 4.05141 183.017 5.64023C183.88 7.41792 184.306 9.36598 184.269 11.3288C184.31 13.188 183.898 15.0287 183.073 16.7064C182.336 18.1915 181.184 19.447 179.747 20.3247C179.684 20.3543 179.628 20.3988 179.588 20.4543C179.551 20.5099 179.551 20.5803 179.588 20.6358L184.484 35.8943L184.535 36.1017C184.535 36.4462 184.339 36.6202 183.95 36.6202H177.562L177.554 36.6165ZM170.636 6.67351C170.507 6.655 170.388 6.74018 170.369 6.8661C170.369 6.88832 170.369 6.91424 170.369 6.93646V15.7805C170.351 15.9064 170.436 16.0212 170.566 16.0397C170.588 16.0397 170.614 16.0397 170.636 16.0397H173.032C174.084 16.062 175.084 15.5916 175.721 14.7731C176.458 13.7917 176.825 12.5955 176.758 11.3844C176.828 10.1548 176.462 8.94378 175.721 7.94382C175.088 7.12534 174.088 6.655 173.032 6.67722H170.636V6.67351ZM199.479 37.0313C196.216 37.0313 193.609 36.1017 191.657 34.2389C189.706 32.376 188.732 29.8946 188.732 26.7911V10.24C188.732 7.13645 189.706 4.65509 191.657 2.79222C193.605 0.929341 196.216 -0.000244141 199.479 -0.000244141C202.742 -0.000244141 205.36 0.929341 207.327 2.79222C209.297 4.65509 210.279 7.13645 210.279 10.24V26.7911C210.279 29.8946 209.294 32.376 207.327 34.2389C205.357 36.1017 202.742 37.0313 199.476 37.035L199.479 37.0313ZM199.479 30.7724C200.394 30.8057 201.275 30.4353 201.875 29.765C202.505 29.0169 202.827 28.0688 202.779 27.1022V9.92891C202.827 8.96229 202.505 8.01419 201.875 7.26608C201.275 6.59574 200.394 6.22539 199.479 6.25872C198.572 6.22168 197.698 6.59204 197.109 7.26608C196.494 8.0216 196.183 8.966 196.231 9.92891V27.0985C196.183 28.0614 196.494 29.0058 197.109 29.7613C197.694 30.4353 198.568 30.8057 199.479 30.7724Z" fill="white"/>
<path d="M130.516 68.1298C130.516 71.3408 129.52 73.8111 127.531 75.5369C125.542 77.2627 122.964 78.1257 119.802 78.1257H109.728C109.558 78.1257 109.395 78.0627 109.276 77.9442C109.154 77.8294 109.087 77.6701 109.091 77.5035V42.4866C109.091 42.32 109.154 42.1607 109.276 42.0459C109.395 41.9274 109.558 41.8607 109.728 41.8644H118.631C122.187 41.8644 124.964 42.694 126.975 44.3495C128.983 46.0087 129.986 48.4752 129.986 51.7565C129.986 55.0379 128.779 57.6637 126.361 59.2154C126.22 59.3191 126.201 59.4228 126.305 59.5265C129.112 61.4598 130.516 64.3263 130.516 68.1261V68.1298ZM116.868 48.1345C116.739 48.116 116.62 48.2049 116.602 48.3308C116.602 48.353 116.602 48.3752 116.602 48.3937V56.5267C116.583 56.6526 116.672 56.7674 116.802 56.7859C116.824 56.7859 116.846 56.7859 116.868 56.7859H118.787C119.853 56.8452 120.89 56.4341 121.613 55.6712C122.338 54.786 122.698 53.6676 122.624 52.538C122.701 51.3714 122.353 50.2159 121.639 49.2752C120.92 48.49 119.868 48.0678 118.787 48.1345H116.868ZM119.213 71.8074C120.29 71.8519 121.32 71.3889 121.983 70.5631C122.72 69.5335 123.075 68.2928 122.994 67.041C123.064 65.7596 122.709 64.4856 121.983 63.4152C121.368 62.5486 120.346 62.0412 119.265 62.0672H116.865C116.735 62.0486 116.617 62.1375 116.598 62.2634C116.598 62.2857 116.598 62.3079 116.598 62.3264V71.5482C116.579 71.6741 116.668 71.7889 116.798 71.8074C116.82 71.8074 116.842 71.8074 116.865 71.8074H119.213ZM150.185 78.1257C149.837 78.1553 149.522 77.9368 149.437 77.6072L145.334 63.3115C145.26 63.1745 145.171 63.1041 145.067 63.1041H143.256C143.126 63.0856 143.008 63.1745 142.989 63.3004C142.989 63.3227 142.989 63.3449 142.989 63.3634V77.5072C142.989 77.6738 142.926 77.8331 142.804 77.9479C142.686 78.0664 142.523 78.1331 142.352 78.1294H136.116C135.945 78.1294 135.782 78.0664 135.664 77.9479C135.542 77.8331 135.475 77.6738 135.479 77.5072V42.4903C135.479 42.3237 135.542 42.1644 135.664 42.0496C135.782 41.9311 135.945 41.8644 136.116 41.8681H146.882C148.722 41.8385 150.533 42.3125 152.107 43.2421C153.648 44.168 154.878 45.5087 155.655 47.1012C156.518 48.8826 156.948 50.8307 156.911 52.8009C156.952 54.6638 156.541 56.5082 155.711 58.1896C154.97 59.6784 153.818 60.9339 152.378 61.8153C152.315 61.845 152.259 61.8894 152.219 61.9449C152.182 62.0005 152.182 62.0709 152.219 62.1264L157.122 77.4072L157.178 77.6146C157.178 77.959 156.981 78.1331 156.592 78.1331H150.193L150.185 78.1257ZM143.256 48.1345C143.126 48.116 143.008 48.2049 142.989 48.3308C142.989 48.353 142.989 48.3752 142.989 48.3937V57.2526C142.971 57.3785 143.06 57.4933 143.189 57.5118C143.212 57.5118 143.234 57.5118 143.256 57.5118H145.656C146.711 57.534 147.711 57.06 148.348 56.2415C149.085 55.2601 149.452 54.0601 149.385 52.8491C149.456 51.6195 149.089 50.401 148.348 49.4011C147.711 48.5826 146.711 48.1086 145.656 48.1308H143.256V48.1345ZM177.847 78.1257C177.521 78.1738 177.214 77.959 177.162 77.6405C177.158 77.6146 177.154 77.5849 177.154 77.5553L176.303 72.5815C176.303 72.4074 176.195 72.3222 175.984 72.3222H169.214C168.999 72.3222 168.896 72.4074 168.896 72.5815L168.044 77.5553C168.044 77.8775 167.77 78.1368 167.436 78.1331C167.407 78.1331 167.377 78.1331 167.351 78.1257H161.114C160.651 78.1257 160.474 77.8997 160.581 77.4516L168.418 42.4348C168.444 42.094 168.751 41.8385 169.103 41.8644C169.103 41.8644 169.107 41.8644 169.11 41.8644H176.306C176.658 41.8348 176.969 42.0866 176.999 42.4274C176.999 42.4274 176.999 42.4311 176.999 42.4348L184.78 77.4516L184.836 77.659C184.836 77.9701 184.639 78.1257 184.25 78.1257H177.854H177.847ZM169.958 66.4225C169.958 66.5966 170.029 66.6818 170.173 66.6818H174.969C175.147 66.6818 175.217 66.5966 175.184 66.4225L172.681 52.2824C172.644 52.1787 172.592 52.1269 172.521 52.1269C172.451 52.1269 172.399 52.1787 172.362 52.2824L169.962 66.4225H169.958ZM192.346 78.1294C191.994 78.159 191.683 77.9072 191.654 77.5664C191.654 77.5664 191.654 77.5627 191.654 77.559L184.032 42.5422L183.976 42.3348C183.976 42.0237 184.173 41.8681 184.561 41.8681H191.435C191.761 41.82 192.069 42.0348 192.12 42.3533C192.124 42.3792 192.128 42.4088 192.128 42.4385L195.805 65.23C195.842 65.367 195.894 65.4374 195.965 65.4374C196.035 65.4374 196.087 65.367 196.124 65.23L199.694 42.4385C199.694 42.1163 199.968 41.857 200.301 41.8607C200.331 41.8607 200.361 41.8607 200.387 41.8681H207.049C207.512 41.8681 207.69 42.094 207.583 42.5422L199.905 77.559C199.879 77.8997 199.572 78.1553 199.22 78.1294C199.22 78.1294 199.216 78.1294 199.213 78.1294H192.339H192.346ZM221.826 78.5442C218.556 78.5442 215.945 77.6109 213.99 75.748C212.034 73.8814 211.056 71.3963 211.056 68.2891V51.7121C211.056 48.6048 212.034 46.1161 213.99 44.2532C215.945 42.3866 218.556 41.457 221.826 41.457C225.097 41.457 227.715 42.3903 229.689 44.2532C231.663 46.1198 232.648 48.6048 232.648 51.7121V68.2891C232.648 71.3963 231.663 73.8851 229.689 75.748C227.715 77.6146 225.097 78.5442 221.826 78.5442ZM221.826 72.2741C222.741 72.3074 223.626 71.9371 224.226 71.2667C224.856 70.5186 225.182 69.5668 225.134 68.6002V51.401C225.182 50.4344 224.86 49.4826 224.226 48.7345C223.626 48.0604 222.741 47.6901 221.826 47.7234C220.919 47.6864 220.041 48.0604 219.456 48.7345C218.841 49.49 218.53 50.4381 218.578 51.401V68.6002C218.53 69.5631 218.841 70.5112 219.456 71.2667C220.045 71.9408 220.919 72.3111 221.826 72.2741Z" fill="white"/>
<path d="M94.8364 43.9313C87.7367 41.0092 80.3741 38.7612 72.8523 37.2205C64.7082 35.5613 56.416 34.7243 48.1016 34.7243C39.7872 34.7243 31.495 35.5576 23.3509 37.2205C15.8254 38.7612 8.46274 41.0092 1.35938 43.9313V3.56285C1.35938 2.70363 1.7001 1.88145 2.30748 1.27407C2.91486 0.666694 3.73704 0.325969 4.59626 0.322266H91.6032C92.4624 0.322266 93.2846 0.666694 93.892 1.27407C94.4994 1.88145 94.8401 2.70363 94.8401 3.56285V43.9313H94.8364ZM20.9473 8.62187L18.0364 16.3956L9.75157 16.7659L16.2364 21.9398L14.0217 29.9431L20.9399 25.3655L27.8581 29.9431L25.6434 21.9398L32.1283 16.7659L23.8435 16.3956L20.9399 8.62187H20.9473ZM67.1451 16.7956L66.0822 19.7769L63.0564 19.9213L65.423 21.9027L64.6193 24.9692L67.1414 23.2175L69.6672 24.9692L68.8636 21.9027L71.2301 19.9213L68.2043 19.7769L67.1414 16.7956H67.1451ZM47.5979 8.62187L45.798 13.5476L40.6686 13.7846L44.6832 17.0622L43.3166 22.1286L47.5979 19.2325L51.8829 22.1286L50.5163 17.0622L54.5309 13.7846L49.4015 13.5476L47.5979 8.62187ZM83.8443 8.97741L82.7814 11.8291L79.7556 11.9662L82.1222 13.8624L81.3148 16.7956L83.8443 15.1179L86.3701 16.7956L85.5628 13.8624L87.933 11.9662L84.9072 11.8291L83.8406 8.97741H83.8443Z" fill="white"/>
<path d="M91.5996 93.703H56.3939C65.2416 86.2886 75.1411 80.2333 85.7666 75.7335C88.7294 74.4817 91.7811 73.3411 94.8328 72.3411V90.4662C94.8328 91.3254 94.4921 92.1476 93.8847 92.7549C93.2773 93.3623 92.4551 93.703 91.5959 93.703H91.5996ZM46.661 93.703H4.59634C3.73712 93.703 2.91124 93.3623 2.30386 92.7549C1.69648 92.1476 1.35575 91.3217 1.35575 90.4625V81.7777C2.38904 81.0259 3.44825 80.2889 4.49635 79.5815C17.3476 70.9375 31.7913 64.934 46.9832 61.9305C62.1751 58.9232 77.8151 58.9751 92.9921 62.0749C93.618 62.2045 94.2365 62.3342 94.8365 62.4712V65.5488C83.3111 69.1005 72.3746 74.3373 62.3862 81.0962C56.8124 84.8664 51.5534 89.081 46.661 93.703ZM1.35575 73.8855V50.8643C1.85203 50.6458 2.34089 50.4384 2.81124 50.2384C9.84794 47.2645 17.1661 44.9942 24.6509 43.4573C40.1243 40.3056 56.0717 40.3056 71.545 43.4573C79.0298 44.9905 86.3443 47.2608 93.3847 50.2384C93.8588 50.4384 94.3439 50.6495 94.8365 50.8643V55.8456L94.2958 55.7345C77.9632 52.4087 61.127 52.4087 44.7907 55.7345C29.2729 58.9121 14.5181 65.0785 1.35205 73.8892L1.35575 73.8855Z" fill="white"/>
</g>
<defs>
<clipPath id="clip0_5051_32140">
<rect width="234" height="93.8178" fill="white"/>
</clipPath>
</defs>
</svg>
