<svg width="93" height="37" viewBox="0 0 93 37" fill="none" xmlns="http://www.w3.org/2000/svg">
<g clip-path="url(#clip0_7021_19301)">
<path d="M56.6646 32.8536H53.7914C53.7914 32.8536 53.7812 32.8536 53.7768 32.8536C53.7476 32.858 53.7272 32.8843 53.7315 32.912V33.2843C53.7315 33.2843 53.7315 33.2945 53.7315 33.2989C53.7359 33.3266 53.7622 33.3471 53.7914 33.3427H54.8893C54.8893 33.3427 54.8937 33.3427 54.8951 33.3427C54.9068 33.3442 54.9156 33.3544 54.9141 33.3661V36.8743C54.9141 36.8743 54.9141 36.8846 54.9141 36.8889C54.9185 36.9167 54.9448 36.9371 54.974 36.9327H55.4295C55.4295 36.9327 55.4397 36.9327 55.4441 36.9327C55.4733 36.9284 55.4937 36.9021 55.4893 36.8743V33.3661C55.4893 33.3661 55.4893 33.3617 55.4893 33.3602C55.4908 33.3485 55.5025 33.3412 55.5127 33.3427H56.6646C56.6646 33.3427 56.6748 33.3427 56.6792 33.3427C56.7084 33.3383 56.7288 33.312 56.7245 33.2843V32.912C56.7245 32.912 56.7245 32.9018 56.7245 32.8974C56.7201 32.8697 56.6938 32.8492 56.6646 32.8536Z" fill="#0252CD"/>
<path d="M61.9016 32.8551H59.2328C59.2328 32.8551 59.2226 32.8551 59.2182 32.8551C59.189 32.8595 59.1686 32.8857 59.173 32.9135V36.8773C59.173 36.8773 59.173 36.8875 59.173 36.8919C59.1773 36.9196 59.2036 36.94 59.2328 36.9357H61.9016C61.9016 36.9357 61.9118 36.9357 61.9162 36.9357C61.9454 36.9313 61.9659 36.905 61.9615 36.8773V36.5094C61.9615 36.5094 61.9615 36.4991 61.9615 36.4948C61.9571 36.467 61.9308 36.4466 61.9016 36.451H59.773C59.773 36.451 59.7686 36.451 59.7672 36.451C59.7555 36.4495 59.7482 36.4393 59.7496 36.4276V35.1443C59.7496 35.1443 59.7496 35.1414 59.7496 35.1385C59.7511 35.1268 59.7613 35.1195 59.773 35.1209H61.2359C61.2359 35.1209 61.2461 35.1209 61.2505 35.1209C61.2797 35.1166 61.3001 35.0903 61.2957 35.0625V34.6946C61.2957 34.6946 61.2957 34.6844 61.2957 34.68C61.2914 34.6523 61.2651 34.6318 61.2359 34.6362H59.773C59.773 34.6362 59.7701 34.6362 59.7672 34.6362C59.7555 34.6362 59.7467 34.6245 59.7482 34.6129V33.3602C59.7482 33.3602 59.7482 33.3558 59.7482 33.3544C59.7496 33.3427 59.7599 33.3354 59.7715 33.3369H61.9002C61.9002 33.3369 61.9104 33.3369 61.9148 33.3369C61.944 33.3325 61.9644 33.3062 61.96 33.2785V32.912C61.96 32.912 61.96 32.9018 61.96 32.8974C61.9556 32.8697 61.9294 32.8492 61.9002 32.8536L61.9016 32.8551Z" fill="#0252CD"/>
<path d="M45.7312 32.8551H43.0624C43.0624 32.8551 43.0522 32.8551 43.0478 32.8551C43.0186 32.8595 42.9982 32.8857 43.0025 32.9135V36.8773C43.0025 36.8773 43.0025 36.8875 43.0025 36.8919C43.0069 36.9196 43.0332 36.94 43.0624 36.9357H45.7312C45.7312 36.9357 45.7414 36.9357 45.7458 36.9357C45.775 36.9313 45.7954 36.905 45.7911 36.8773V36.5094C45.7911 36.5094 45.7911 36.4991 45.7911 36.4948C45.7867 36.467 45.7604 36.4466 45.7312 36.451H43.6026C43.6026 36.451 43.5982 36.451 43.5967 36.451C43.5851 36.4495 43.5778 36.4393 43.5792 36.4276V35.1443C43.5792 35.1443 43.5792 35.1399 43.5792 35.1385C43.5807 35.1268 43.5909 35.1195 43.6026 35.1209H45.0655C45.0655 35.1209 45.0757 35.1209 45.0801 35.1209C45.1093 35.1166 45.1297 35.0903 45.1253 35.0625V34.6946C45.1253 34.6946 45.1253 34.6844 45.1253 34.68C45.1209 34.6523 45.0947 34.6318 45.0655 34.6362H43.6026C43.6026 34.6362 43.5982 34.6362 43.5967 34.6362C43.5851 34.6348 43.5778 34.6245 43.5792 34.6129V33.3602C43.5792 33.3602 43.5792 33.3558 43.5792 33.3544C43.5807 33.3427 43.5909 33.3354 43.6026 33.3369H45.7312C45.7312 33.3369 45.7414 33.3369 45.7458 33.3369C45.775 33.3325 45.7954 33.3062 45.7911 33.2785V32.912C45.7911 32.912 45.7911 32.9018 45.7911 32.8974C45.7867 32.8697 45.7604 32.8492 45.7312 32.8536V32.8551Z" fill="#0252CD"/>
<path d="M81.0008 32.8536H80.5453C80.5453 32.8536 80.5351 32.8536 80.5307 32.8536C80.5015 32.858 80.4811 32.8843 80.4855 32.912V36.8758C80.4855 36.8758 80.4855 36.886 80.4855 36.8904C80.4898 36.9181 80.5161 36.9386 80.5453 36.9342H81.0008C81.0008 36.9342 81.011 36.9342 81.0154 36.9342C81.0446 36.9298 81.0651 36.9035 81.0607 36.8758V32.912C81.0607 32.912 81.0607 32.9018 81.0607 32.8974C81.0563 32.8697 81.03 32.8492 81.0008 32.8536Z" fill="#0252CD"/>
<path d="M51.225 32.8536H50.7695C50.7695 32.8536 50.7592 32.8536 50.7549 32.8536C50.7257 32.858 50.7052 32.8843 50.7096 32.912L50.7154 35.867C50.7154 35.8786 50.7111 35.8859 50.7038 35.8874C50.6965 35.8889 50.6892 35.8845 50.6862 35.8728L48.8146 32.8945C48.8 32.8697 48.7722 32.8551 48.743 32.8536H48.2992C48.2992 32.8536 48.289 32.8536 48.2846 32.8536C48.2554 32.858 48.235 32.8843 48.2394 32.912V36.8758C48.2394 36.8758 48.2394 36.886 48.2394 36.8904C48.2437 36.9181 48.27 36.9386 48.2992 36.9342H48.7547C48.7547 36.9342 48.7649 36.9342 48.7693 36.9342C48.7985 36.9298 48.819 36.9035 48.8146 36.8758L48.8087 33.9208C48.8087 33.9092 48.8131 33.9019 48.8204 33.9004C48.8277 33.8989 48.835 33.9033 48.8379 33.915L50.7154 36.8933C50.73 36.9181 50.7578 36.9327 50.787 36.9342H51.225C51.225 36.9342 51.2352 36.9342 51.2396 36.9342C51.2688 36.9298 51.2892 36.9035 51.2848 36.8758V32.912C51.2848 32.912 51.2848 32.9018 51.2848 32.8974C51.2804 32.8697 51.2542 32.8492 51.225 32.8536Z" fill="#0252CD"/>
<path d="M77.1627 35.1151C77.154 35.1035 77.1583 35.0932 77.1744 35.0859C77.4167 35.0305 77.6328 34.8961 77.7832 34.7034C77.9336 34.5034 78.0095 34.2596 78.0022 34.0129C78.0066 33.8012 77.9555 33.5924 77.8518 33.407C77.754 33.2347 77.608 33.0931 77.4284 32.9997C77.2342 32.8989 77.0167 32.8493 76.7963 32.8537H75.183C75.183 32.8537 75.1728 32.8537 75.1684 32.8537C75.1392 32.858 75.1188 32.8843 75.1231 32.9121V36.8758C75.1231 36.8758 75.1231 36.8861 75.1231 36.8904C75.1275 36.9182 75.1538 36.9386 75.183 36.9342H75.6385C75.6385 36.9342 75.6487 36.9342 75.6531 36.9342C75.6823 36.9299 75.7028 36.9036 75.6984 36.8758V35.156C75.6984 35.156 75.6984 35.1516 75.6984 35.1502C75.6998 35.1385 75.71 35.1312 75.7217 35.1327H76.5846C76.5962 35.1327 76.6065 35.14 76.6079 35.1502L77.4474 36.8934C77.4576 36.9196 77.4839 36.9357 77.5131 36.9342H77.9861C78.0182 36.9342 78.0343 36.9211 78.0343 36.8934C78.0343 36.8831 78.0328 36.8729 78.0285 36.8642L77.1583 35.1151H77.1627ZM75.7247 34.6903C75.7247 34.6903 75.7217 34.6903 75.7188 34.6903C75.7071 34.6888 75.6984 34.6786 75.6998 34.6669V33.3617C75.6998 33.3617 75.6998 33.3573 75.6998 33.3559C75.7013 33.3442 75.7115 33.3369 75.7232 33.3384H76.7247C76.9131 33.3296 77.0985 33.3968 77.2343 33.5252C77.3656 33.6581 77.4343 33.8362 77.427 34.0202C77.4357 34.2012 77.3656 34.3779 77.2343 34.5063C77.097 34.6319 76.9131 34.699 76.7247 34.6903H75.7232H75.7247Z" fill="#0252CD"/>
<path d="M66.4464 35.1151C66.4391 35.1035 66.442 35.0932 66.4581 35.0859C66.7004 35.0305 66.9165 34.8961 67.0669 34.7034C67.2173 34.5034 67.2932 34.2596 67.2859 34.0129C67.2903 33.8012 67.2392 33.5924 67.1355 33.407C67.0377 33.2347 66.8917 33.0931 66.7121 32.9997C66.5179 32.8989 66.3004 32.8493 66.08 32.8537H64.4667C64.4667 32.8537 64.4565 32.8537 64.4521 32.8537C64.4229 32.858 64.4025 32.8843 64.4068 32.9121V36.8758C64.4068 36.8758 64.4068 36.8861 64.4068 36.8904C64.4112 36.9182 64.4375 36.9386 64.4667 36.9342H64.9222C64.9222 36.9342 64.9324 36.9342 64.9368 36.9342C64.966 36.9299 64.9864 36.9036 64.9821 36.8758V35.156C64.9821 35.156 64.9821 35.1516 64.9821 35.1502C64.9835 35.1385 64.9937 35.1312 65.0054 35.1327H65.8683C65.8799 35.1327 65.8902 35.14 65.8916 35.1502L66.7311 36.8934C66.7413 36.9196 66.7676 36.9357 66.7968 36.9342H67.2698C67.3019 36.9342 67.318 36.9211 67.318 36.8934C67.318 36.8831 67.3165 36.8729 67.3122 36.8642L66.442 35.1151H66.4464ZM65.0069 34.6903C65.0069 34.6903 65.004 34.6903 65.001 34.6903C64.9894 34.6888 64.9806 34.6786 64.9821 34.6669V33.3617C64.9821 33.3617 64.9821 33.3573 64.9821 33.3559C64.9835 33.3442 64.9937 33.3369 65.0054 33.3384H66.007C66.1953 33.3296 66.3807 33.3968 66.5165 33.5252C66.6479 33.6581 66.7165 33.8362 66.7077 34.0202C66.7165 34.2012 66.6464 34.3779 66.5165 34.5063C66.3792 34.6319 66.1953 34.699 66.007 34.6903H65.0054H65.0069Z" fill="#0252CD"/>
<path d="M85.855 34.9487C85.6317 34.8363 85.401 34.7356 85.1659 34.648C84.89 34.5472 84.6856 34.4655 84.5513 34.4012C84.436 34.3501 84.3323 34.2757 84.2476 34.1822C84.1776 34.0917 84.1411 33.9808 84.1454 33.8669C84.1352 33.7005 84.2126 33.5399 84.3484 33.4391C84.5192 33.3311 84.7207 33.2785 84.9236 33.2917C85.1689 33.2785 85.4127 33.3486 85.6098 33.4931C85.7689 33.6143 85.8609 33.8012 85.858 33.9968V34.0844C85.858 34.0844 85.858 34.0946 85.858 34.099C85.8623 34.1268 85.8886 34.1472 85.9178 34.1428H86.3675C86.3675 34.1428 86.3777 34.1428 86.3821 34.1428C86.4113 34.1384 86.4317 34.1122 86.4273 34.0844V33.9676C86.4317 33.7515 86.3675 33.5413 86.2448 33.3617C86.1149 33.1807 85.9353 33.0391 85.7266 32.9544C85.4798 32.8537 85.2141 32.804 84.9469 32.8084C84.5907 32.7894 84.2374 32.8902 83.9483 33.0946C83.7031 33.2844 83.5658 33.5764 83.579 33.8815C83.5717 34.0786 83.6301 34.2713 83.7469 34.4319C83.8593 34.5779 84.0038 34.6991 84.1703 34.7852C84.3951 34.8976 84.6258 34.9969 84.8637 35.0816C85.0696 35.1575 85.2711 35.2436 85.4667 35.3414C85.5864 35.3998 85.693 35.4801 85.782 35.578C85.855 35.6656 85.893 35.775 85.8901 35.8875C85.8959 36.0583 85.8171 36.2233 85.6798 36.3298C85.4988 36.4554 85.2784 36.5138 85.0564 36.4992C84.7995 36.5138 84.5455 36.4452 84.3308 36.3065C84.1644 36.1955 84.0651 36.013 84.0666 35.8174V35.6772C84.0666 35.6772 84.0666 35.667 84.0666 35.6626C84.0622 35.6349 84.0359 35.6145 84.0067 35.6188H83.5687C83.5687 35.6188 83.5585 35.6188 83.5542 35.6188C83.525 35.6232 83.5045 35.6495 83.5089 35.6772V35.8466C83.5045 36.0597 83.5673 36.27 83.6914 36.4466C83.8228 36.6247 84.0038 36.762 84.2126 36.8423C84.4666 36.9401 84.7396 36.9883 85.0126 36.9824H85.0112C85.3922 37.0043 85.7689 36.8978 86.0799 36.6817C86.3354 36.486 86.4799 36.1838 86.4668 35.8685C86.4741 35.6699 86.4127 35.4743 86.293 35.3122C86.1762 35.1619 86.0273 35.0392 85.855 34.9516V34.9487Z" fill="#0252CD"/>
<path d="M72.0934 32.9967C71.8948 32.8945 71.6729 32.8434 71.4496 32.8492H69.829C69.829 32.8492 69.8188 32.8478 69.8144 32.8478C69.7852 32.8522 69.7648 32.8784 69.7691 32.9062V36.8743C69.7691 36.8743 69.7691 36.8846 69.7691 36.8889C69.7735 36.9167 69.7998 36.9371 69.829 36.9327H70.2845C70.2845 36.9327 70.2947 36.9327 70.2991 36.9327C70.3283 36.9284 70.3487 36.9021 70.3444 36.8743V35.2187C70.3444 35.2187 70.3444 35.2144 70.3444 35.2129C70.3458 35.2012 70.3575 35.1939 70.3692 35.1954H71.4247C71.6525 35.1998 71.8788 35.1501 72.0817 35.0494C72.2657 34.9574 72.419 34.8158 72.5226 34.6421C72.6292 34.4552 72.6832 34.2435 72.6788 34.0303C72.6832 33.8157 72.6307 33.6026 72.527 33.4128C72.4277 33.2361 72.2773 33.0916 72.0949 32.9967H72.0934ZM71.9021 34.5501C71.7591 34.6815 71.5678 34.7516 71.3707 34.7428H70.3692C70.3692 34.7428 70.3648 34.7428 70.3633 34.7428C70.3517 34.7413 70.3429 34.7311 70.3458 34.7194V33.3558C70.3458 33.3558 70.3458 33.3515 70.3458 33.35C70.3473 33.3383 70.359 33.331 70.3706 33.3325H71.3722C71.5693 33.3237 71.7605 33.3938 71.9036 33.5281C72.0408 33.6654 72.1138 33.8522 72.1051 34.0435C72.1138 34.2318 72.0408 34.4158 71.9036 34.5501H71.9021Z" fill="#0252CD"/>
<path d="M91.6423 32.8534H88.9735C88.9735 32.8534 88.9633 32.8534 88.9589 32.8534C88.9297 32.8577 88.9093 32.884 88.9137 32.9118V36.8756C88.9137 36.8756 88.9137 36.8858 88.9137 36.8901C88.9181 36.9179 88.9443 36.9383 88.9735 36.9339H91.6423C91.6423 36.9339 91.6526 36.9339 91.6569 36.9339C91.6861 36.9296 91.7066 36.9033 91.7022 36.8756V36.5076C91.7022 36.5076 91.7022 36.4974 91.7022 36.493C91.6978 36.4653 91.6715 36.4449 91.6423 36.4492H89.5137C89.5137 36.4492 89.5093 36.4492 89.5079 36.4492C89.4962 36.4478 89.4874 36.4376 89.4889 36.4259V35.1426C89.4889 35.1426 89.4889 35.1382 89.4889 35.1367C89.4904 35.1251 89.5006 35.1178 89.5123 35.1192H90.9751C90.9751 35.1192 90.9854 35.1192 90.9897 35.1192C91.0189 35.1148 91.0394 35.0886 91.035 35.0608V34.6929C91.035 34.6929 91.035 34.6827 91.035 34.6783C91.0306 34.6506 91.0043 34.6301 90.9751 34.6345H89.5123C89.5123 34.6345 89.5079 34.6345 89.5064 34.6345C89.4947 34.6331 89.486 34.6228 89.4874 34.6112V33.3585C89.4874 33.3585 89.4874 33.3541 89.4874 33.3527C89.4889 33.341 89.4991 33.3337 89.5108 33.3352H91.6394C91.6394 33.3352 91.6496 33.3352 91.654 33.3352C91.6832 33.3308 91.7036 33.3045 91.6993 33.2768V32.9103C91.6993 32.9103 91.6993 32.9001 91.6993 32.8957C91.6949 32.868 91.6686 32.8475 91.6394 32.8519L91.6423 32.8534Z" fill="#0252CD"/>
<path d="M49.8104 14.436C49.6805 14.455 49.5608 14.3689 49.5403 14.2433C49.5389 14.2331 49.5374 14.2229 49.5374 14.2112L49.2016 12.2534C49.2016 12.1848 49.1593 12.1512 49.0761 12.1512H46.4117C46.327 12.1512 46.2861 12.1848 46.2861 12.2534L45.9503 14.2112C45.9489 14.3382 45.8408 14.4404 45.7109 14.4375C45.6992 14.4375 45.689 14.4375 45.6788 14.4346H43.2246C43.0421 14.4346 42.9735 14.3455 43.0143 14.1689L46.0978 0.389808C46.108 0.255492 46.2292 0.154755 46.3679 0.164975C46.3679 0.164975 46.3693 0.164975 46.3708 0.164975H49.2031C49.3418 0.153295 49.463 0.252572 49.4761 0.386888C49.4761 0.386888 49.4761 0.388348 49.4761 0.389808L52.5391 14.1718L52.5595 14.2536C52.5595 14.3762 52.4822 14.4375 52.3289 14.4375H49.8119L49.8104 14.436ZM46.7066 9.82843C46.7066 9.89705 46.7343 9.93062 46.7898 9.93062H48.6775C48.7476 9.93062 48.7753 9.89705 48.7607 9.82843L47.7738 4.26307C47.7592 4.22219 47.7388 4.20176 47.711 4.20176C47.6833 4.20176 47.6614 4.22219 47.6482 4.26307L46.7051 9.82843H46.7066ZM57.846 14.5981C56.5876 14.5981 55.5773 14.2477 54.8152 13.5484C54.0531 12.8491 53.672 11.9147 53.672 10.7453V3.85429C53.672 2.68486 54.0531 1.75049 54.8152 1.05117C55.5758 0.35039 56.5876 0 57.846 0C59.1045 0 60.1192 0.353309 60.8886 1.05993C61.658 1.76655 62.042 2.70384 62.042 3.87326V4.6485C62.042 4.7142 62.0171 4.77698 61.969 4.82224C61.9222 4.86895 61.858 4.89523 61.7908 4.89377H59.3367C59.2695 4.89377 59.2053 4.86895 59.1585 4.82224C59.1104 4.77698 59.0841 4.7142 59.0855 4.6485V3.83239C59.1031 3.47324 58.9834 3.12139 58.7498 2.84254C58.5235 2.58996 58.1921 2.45127 57.8475 2.46587C57.5103 2.45419 57.1861 2.59288 56.9672 2.84254C56.7336 3.12139 56.6138 3.47324 56.6314 3.83093V10.7628C56.6138 11.1219 56.7336 11.4738 56.9672 11.7512C57.1861 12.0008 57.5103 12.1395 57.8475 12.1279C58.1921 12.1425 58.5235 12.0038 58.7498 11.7512C58.9834 11.4723 59.1031 11.1205 59.0855 10.7628V9.13203C59.0928 9.08239 59.0593 9.03713 59.0082 9.02983C58.9994 9.02983 58.9892 9.02983 58.9804 9.02983H58.0577C57.9906 9.02983 57.9263 9.00501 57.8796 8.95829C57.8314 8.91303 57.8052 8.85026 57.8066 8.78456V6.96983C57.8066 6.90413 57.8314 6.84136 57.8796 6.7961C57.9263 6.74938 57.9906 6.7231 58.0577 6.72456H61.7923C61.8595 6.72456 61.9237 6.74938 61.9704 6.7961C62.0186 6.84136 62.0449 6.90413 62.0434 6.96983V10.7409C62.0434 11.9103 61.6595 12.8447 60.8901 13.544C60.1207 14.2433 59.106 14.5952 57.8475 14.5952L57.846 14.5981ZM69.9929 14.4346C69.8571 14.4463 69.7316 14.3601 69.6994 14.2302L68.0847 8.60352C68.057 8.54951 68.0219 8.52177 67.9796 8.52177H67.2671C67.216 8.51447 67.1693 8.54805 67.162 8.59768C67.162 8.60644 67.162 8.61666 67.162 8.62542V14.1908C67.162 14.2565 67.1372 14.3193 67.089 14.3645C67.0423 14.4112 66.9781 14.4375 66.9109 14.436H64.4567C64.3896 14.436 64.3253 14.4112 64.2786 14.3645C64.2304 14.3193 64.2042 14.2565 64.2056 14.1908V0.410248C64.2056 0.34455 64.2304 0.281772 64.2786 0.236513C64.3253 0.189794 64.3896 0.163515 64.4567 0.164975H68.695C69.4191 0.153295 70.1316 0.34017 70.7506 0.705159C71.3565 1.07015 71.8412 1.59719 72.1463 2.22351C72.4865 2.92429 72.6544 3.69223 72.6398 4.46601C72.6558 5.1989 72.4938 5.9245 72.1682 6.58586C71.8777 7.17131 71.4236 7.66623 70.8572 8.01224C70.8324 8.02392 70.8105 8.04144 70.7944 8.06334C70.7798 8.08524 70.7798 8.11298 70.7944 8.13488L72.7245 14.1499L72.7449 14.2317C72.7449 14.3674 72.6675 14.436 72.5142 14.436H69.9958L69.9929 14.4346ZM67.2657 2.63084C67.2146 2.62354 67.1679 2.65712 67.1606 2.70676C67.1606 2.71552 67.1606 2.72574 67.1606 2.7345V6.22087C67.1533 6.27051 67.1868 6.31577 67.2379 6.32307C67.2467 6.32307 67.2569 6.32307 67.2657 6.32307H68.2103C68.6249 6.33183 69.0191 6.14642 69.2702 5.82377C69.5607 5.43688 69.7053 4.96531 69.679 4.48791C69.7067 4.0032 69.5622 3.52579 69.2702 3.13161C69.0206 2.80896 68.6264 2.62354 68.2103 2.6323H67.2657V2.63084ZM78.6358 14.5981C77.3496 14.5981 76.3218 14.2317 75.5524 13.4973C74.783 12.7629 74.399 11.7848 74.399 10.5613V4.03678C74.399 2.81334 74.783 1.83517 75.5524 1.10081C76.3203 0.366449 77.3496 0 78.6358 0C79.922 0 80.9542 0.366449 81.7295 1.10081C82.5062 1.83517 82.8931 2.81334 82.8931 4.03678V10.5613C82.8931 11.7848 82.5047 12.7629 81.7295 13.4973C80.9528 14.2317 79.922 14.5981 78.6344 14.5996L78.6358 14.5981ZM78.6358 12.1308C78.9964 12.1439 79.3439 11.9979 79.5804 11.7337C79.8286 11.4388 79.9556 11.065 79.9366 10.684V3.91414C79.9556 3.53309 79.8286 3.15935 79.5804 2.86443C79.3439 2.60018 78.9964 2.45419 78.6358 2.46733C78.2781 2.45273 77.9336 2.59872 77.7014 2.86443C77.4591 3.16227 77.3365 3.53455 77.3554 3.91414V10.6825C77.3365 11.0621 77.4591 11.4344 77.7014 11.7322C77.9321 11.9979 78.2767 12.1439 78.6358 12.1308Z" fill="#0252CD"/>
<path d="M51.4503 26.8574C51.4503 28.1232 51.0576 29.097 50.2736 29.7773C49.4896 30.4576 48.4735 30.7978 47.2266 30.7978H43.2556C43.1884 30.7978 43.1242 30.773 43.0775 30.7263C43.0293 30.681 43.003 30.6182 43.0045 30.5525V16.7486C43.0045 16.6829 43.0293 16.6202 43.0775 16.5749C43.1242 16.5282 43.1884 16.5019 43.2556 16.5034H46.7653C48.1669 16.5034 49.2618 16.8304 50.0546 17.483C50.8459 18.1371 51.2415 19.1094 51.2415 20.4029C51.2415 21.6964 50.7656 22.7315 49.8122 23.3433C49.7568 23.3841 49.7495 23.425 49.7903 23.4659C50.897 24.228 51.4503 25.358 51.4503 26.8559V26.8574ZM46.0704 18.9751C46.0193 18.9678 45.9725 19.0028 45.9652 19.0525C45.9652 19.0612 45.9652 19.07 45.9652 19.0773V22.2833C45.9579 22.333 45.993 22.3782 46.0441 22.3855C46.0528 22.3855 46.0616 22.3855 46.0704 22.3855H46.8266C47.2471 22.4089 47.6559 22.2468 47.9406 21.9461C48.2267 21.5972 48.3683 21.1562 48.3391 20.711C48.3698 20.2511 48.2326 19.7956 47.9508 19.4247C47.6676 19.1152 47.2529 18.9488 46.8266 18.9751H46.0704ZM46.9945 28.3071C47.4194 28.3246 47.8252 28.1421 48.0866 27.8166C48.3771 27.4107 48.5172 26.9216 48.4851 26.4282C48.5129 25.923 48.3727 25.4208 48.0866 24.9989C47.8442 24.6572 47.4413 24.4572 47.015 24.4674H46.0689C46.0178 24.4601 45.9711 24.4952 45.9638 24.5448C45.9638 24.5536 45.9638 24.5623 45.9638 24.5696V28.2049C45.9565 28.2546 45.9915 28.2998 46.0426 28.3071C46.0514 28.3071 46.0601 28.3071 46.0689 28.3071H46.9945ZM59.2041 30.7978C59.0669 30.8095 58.9428 30.7233 58.9092 30.5934L57.2916 24.958C57.2624 24.904 57.2274 24.8762 57.1865 24.8762H56.4726C56.4215 24.8689 56.3747 24.904 56.3674 24.9536C56.3674 24.9624 56.3674 24.9711 56.3674 24.9784V30.554C56.3674 30.6197 56.3426 30.6825 56.2944 30.7277C56.2477 30.7744 56.1835 30.8007 56.1163 30.7993H53.6578C53.5906 30.7993 53.5264 30.7744 53.4796 30.7277C53.4315 30.6825 53.4052 30.6197 53.4066 30.554V16.7501C53.4066 16.6844 53.4315 16.6216 53.4796 16.5764C53.5264 16.5296 53.5906 16.5034 53.6578 16.5048H57.9018C58.6274 16.4931 59.3414 16.68 59.9618 17.0465C60.5692 17.4115 61.0539 17.94 61.3605 18.5677C61.7007 19.27 61.87 20.0379 61.8554 20.8146C61.8715 21.549 61.7094 22.276 61.3824 22.9389C61.0904 23.5258 60.6363 24.0207 60.0684 24.3682C60.0436 24.3798 60.0217 24.3974 60.0056 24.4193C59.991 24.4412 59.991 24.4689 60.0056 24.4908L61.9386 30.5146L61.9605 30.5963C61.9605 30.7321 61.8832 30.8007 61.7299 30.8007H59.2071L59.2041 30.7978ZM56.4726 18.9751C56.4215 18.9678 56.3747 19.0028 56.3674 19.0525C56.3674 19.0612 56.3674 19.07 56.3674 19.0773V22.5695C56.3601 22.6191 56.3952 22.6644 56.4463 22.6717C56.455 22.6717 56.4638 22.6717 56.4726 22.6717H57.4186C57.8347 22.6804 58.2289 22.4936 58.48 22.1709C58.7705 21.784 58.9151 21.311 58.8888 20.8336C58.9165 20.3489 58.772 19.8686 58.48 19.4744C58.2289 19.1517 57.8347 18.9649 57.4186 18.9736H56.4726V18.9751ZM70.1085 30.7978C69.9801 30.8168 69.8589 30.7321 69.8385 30.6065C69.837 30.5963 69.8355 30.5846 69.8355 30.573L69.4997 28.6122C69.4997 28.5436 69.4574 28.51 69.3742 28.51H66.7054C66.6207 28.51 66.5798 28.5436 66.5798 28.6122L66.244 30.573C66.244 30.7 66.136 30.8022 66.0046 30.8007C65.9929 30.8007 65.9812 30.8007 65.971 30.7978H63.5125C63.33 30.7978 63.2599 30.7087 63.3022 30.5321L66.3915 16.7282C66.4017 16.5939 66.5229 16.4931 66.6616 16.5034C66.6616 16.5034 66.663 16.5034 66.6645 16.5034H69.5012C69.6399 16.4917 69.7625 16.591 69.7742 16.7253C69.7742 16.7253 69.7742 16.7267 69.7742 16.7282L72.8416 30.5321L72.8635 30.6138C72.8635 30.7365 72.7861 30.7978 72.6328 30.7978H70.1115H70.1085ZM66.9988 26.1843C66.9988 26.253 67.0266 26.2865 67.0835 26.2865H68.9742C69.0442 26.2865 69.072 26.253 69.0588 26.1843L68.0719 20.6102C68.0573 20.5693 68.0369 20.5489 68.0091 20.5489C67.9814 20.5489 67.9609 20.5693 67.9463 20.6102L67.0003 26.1843H66.9988ZM75.8243 30.7993C75.6856 30.8109 75.5629 30.7117 75.5513 30.5773C75.5513 30.5773 75.5513 30.5759 75.5513 30.5744L72.5467 16.7705L72.5248 16.6888C72.5248 16.5661 72.6021 16.5048 72.7554 16.5048H75.4651C75.5936 16.4858 75.7148 16.5705 75.7352 16.6961C75.7367 16.7063 75.7381 16.718 75.7381 16.7297L77.1879 25.7142C77.2025 25.7683 77.2229 25.796 77.2507 25.796C77.2784 25.796 77.2988 25.7683 77.3134 25.7142L78.7208 16.7297C78.7208 16.6026 78.8289 16.5004 78.9603 16.5019C78.9719 16.5019 78.9836 16.5019 78.9938 16.5048H81.6203C81.8028 16.5048 81.8729 16.5939 81.8305 16.7705L78.804 30.5744C78.7938 30.7087 78.6726 30.8095 78.534 30.7993C78.534 30.7993 78.5325 30.7993 78.531 30.7993H75.8214H75.8243ZM87.4455 30.9628C86.1564 30.9628 85.1271 30.5949 84.3563 29.8605C83.5854 29.1247 83.2 28.1451 83.2 26.9202V20.3854C83.2 19.1605 83.5854 18.1794 84.3563 17.445C85.1271 16.7092 86.1564 16.3428 87.4455 16.3428C88.7347 16.3428 89.7669 16.7107 90.545 17.445C91.3232 18.1809 91.7115 19.1605 91.7115 20.3854V26.9202C91.7115 28.1451 91.3232 29.1262 90.545 29.8605C89.7669 30.5963 88.7347 30.9628 87.4455 30.9628ZM87.4455 28.4911C87.8061 28.5042 88.1551 28.3582 88.3916 28.094C88.6398 27.7991 88.7682 27.4238 88.7493 27.0428V20.2628C88.7682 19.8817 88.6412 19.5065 88.3916 19.2116C88.1551 18.9459 87.8061 18.7999 87.4455 18.813C87.0878 18.7984 86.7418 18.9459 86.5112 19.2116C86.2688 19.5094 86.1462 19.8832 86.1651 20.2628V27.0428C86.1462 27.4224 86.2688 27.7961 86.5112 28.094C86.7433 28.3597 87.0878 28.5057 87.4455 28.4911Z" fill="#0252CD"/>
<path d="M37.3849 17.3182C34.5862 16.1663 31.6838 15.2801 28.7186 14.6727C25.5082 14.0187 22.2394 13.6887 18.9618 13.6887C15.6842 13.6887 12.4153 14.0172 9.20486 14.6727C6.23823 15.2801 3.33584 16.1663 0.535645 17.3182V1.40466C0.535645 1.06595 0.66996 0.741839 0.909393 0.502406C1.14883 0.262973 1.47294 0.128657 1.81165 0.127197H36.1104C36.4491 0.127197 36.7732 0.262973 37.0127 0.502406C37.2521 0.741839 37.3864 1.06595 37.3864 1.40466V17.3182H37.3849ZM8.25735 3.39896L7.10983 6.46341L3.84391 6.6094L6.40029 8.64896L5.52724 11.8039L8.25443 9.99942L10.9816 11.8039L10.1086 8.64896L12.665 6.6094L9.39904 6.46341L8.25443 3.39896H8.25735ZM26.4688 6.62108L26.0498 7.79635L24.8571 7.85329L25.79 8.63436L25.4732 9.84321L26.4674 9.15265L27.4631 9.84321L27.1463 8.63436L28.0792 7.85329L26.8864 7.79635L26.4674 6.62108H26.4688ZM18.7632 3.39896L18.0537 5.3407L16.0316 5.43414L17.6142 6.7262L17.0755 8.72342L18.7632 7.58174L20.4524 8.72342L19.9136 6.7262L21.4962 5.43414L19.4742 5.3407L18.7632 3.39896ZM33.0518 3.53912L32.6328 4.66328L31.44 4.7173L32.3729 5.4648L32.0546 6.62108L33.0518 5.95972L34.0475 6.62108L33.7292 5.4648L34.6636 4.7173L33.4708 4.66328L33.0503 3.53912H33.0518Z" fill="#0252CD"/>
<path d="M36.1089 36.9383H22.2306C25.7184 34.0154 29.6209 31.6284 33.8095 29.8546C34.9775 29.3611 36.1805 28.9114 37.3835 28.5172V35.6623C37.3835 36.001 37.2492 36.3251 37.0097 36.5645C36.7703 36.804 36.4462 36.9383 36.1075 36.9383H36.1089ZM18.3938 36.9383H1.81164C1.47293 36.9383 1.14736 36.804 0.907924 36.5645C0.668491 36.3251 0.534175 35.9995 0.534175 35.6608V32.2372C0.941503 31.9408 1.35905 31.6503 1.77222 31.3715C6.83827 27.9639 12.5321 25.5973 18.5208 24.4133C24.5096 23.2278 30.675 23.2483 36.6579 24.4702C36.9046 24.5213 37.1484 24.5724 37.3849 24.6265V25.8397C32.8416 27.2398 28.5303 29.3042 24.5928 31.9686C22.3956 33.4548 20.3224 35.1162 18.3938 36.9383ZM0.534175 29.126V20.0509C0.729809 19.9648 0.922523 19.8831 1.10794 19.8042C3.88186 18.6319 6.76673 17.7369 9.7173 17.131C15.817 15.8886 22.1036 15.8886 28.2033 17.131C31.1538 17.7355 34.0373 18.6304 36.8126 19.8042C36.9995 19.8831 37.1908 19.9663 37.3849 20.0509V22.0146L37.1718 21.9708C30.7334 20.6598 24.0964 20.6598 17.6565 21.9708C11.5393 23.2234 5.72286 25.6543 0.532715 29.1275L0.534175 29.126Z" fill="#08B078"/>
</g>
<defs>
<clipPath id="clip0_7021_19301">
<rect width="92.2444" height="36.9836" fill="white"/>
</clipPath>
</defs>
</svg>
